%
M48
M72
T01C0.0320
T02C0.0354
T03C0.0400
T04C0.1102
%
T01
X10583Y14000
X11583Y14000
T02
X13583Y14000
X16583Y14000
X19583Y15750
X16583Y9000
X13583Y9000
T03
X11723Y8970
X9943Y8970
X12583Y7000
X13583Y7000
X14583Y7000
X15583Y7000
X16583Y7000
X17583Y7000
X19583Y8500
X19583Y9500
X19583Y10500
X16583Y10450
X15583Y10550
X14583Y10450
X13583Y10550
X13583Y11550
X14583Y11450
X15583Y11550
X16583Y11450
X11723Y11530
X9943Y11530
X9943Y15720
X11723Y15720
X11723Y18280
X9943Y18280
X19533Y18000
X19633Y17000
X22583Y17320
X22583Y16180
X22583Y14450
X21583Y14550
X20583Y14450
X19583Y14550
X22583Y10500
X22583Y9500
X22583Y8500
X19633Y19000
T04
X10083Y6500
X22583Y19000
M30
