G75*
%MOIN*%
%OFA0B0*%
%FSLAX24Y24*%
%IPPOS*%
%LPD*%
%AMOC8*
5,1,8,0,0,1.08239X$1,22.5*
%
%ADD10C,0.0000*%
%ADD11C,0.0060*%
%ADD12C,0.0740*%
%ADD13C,0.0520*%
%ADD14R,0.0740X0.0740*%
%ADD15C,0.0160*%
%ADD16C,0.0531*%
%ADD17C,0.1502*%
D10*
X008833Y005250D02*
X008833Y020250D01*
X023833Y020250D01*
X023833Y005250D01*
X008833Y005250D01*
D11*
X011568Y005580D02*
X011889Y005580D01*
X011995Y005687D01*
X011995Y006114D01*
X011889Y006221D01*
X011568Y006221D01*
X011568Y005580D01*
X012857Y005580D02*
X012857Y006221D01*
X013178Y006221D01*
X013284Y006114D01*
X013284Y005900D01*
X013178Y005794D01*
X012857Y005794D01*
X013071Y005794D02*
X013284Y005580D01*
X014147Y006221D02*
X014574Y006221D01*
X014360Y006221D02*
X014360Y005580D01*
X015436Y005794D02*
X015436Y006221D01*
X015863Y006221D02*
X015863Y005794D01*
X015649Y005580D01*
X015436Y005794D01*
X016725Y005687D02*
X016831Y005580D01*
X017045Y005580D01*
X017152Y005687D01*
X016725Y005687D02*
X016725Y006114D01*
X016831Y006221D01*
X017045Y006221D01*
X017152Y006114D01*
X018014Y006114D02*
X018014Y005687D01*
X018121Y005580D01*
X018334Y005580D01*
X018441Y005687D01*
X018441Y005900D01*
X018227Y005900D01*
X018014Y006114D02*
X018121Y006221D01*
X018334Y006221D01*
X018441Y006114D01*
X018340Y008563D02*
X018340Y008883D01*
X018233Y008990D01*
X018020Y008990D01*
X017913Y008883D01*
X017913Y008563D01*
X018553Y008563D01*
X018553Y009208D02*
X017913Y009635D01*
X017913Y009852D02*
X017913Y010279D01*
X018233Y010066D02*
X018233Y009852D01*
X018553Y009852D02*
X017913Y009852D01*
X020913Y009852D02*
X021020Y009745D01*
X021447Y009745D01*
X021553Y009852D01*
X021553Y010065D01*
X021447Y010172D01*
X021020Y010172D01*
X020913Y010065D01*
X020913Y009852D01*
X020913Y009527D02*
X021553Y009100D01*
X021553Y008884D02*
X021553Y008671D01*
X021553Y008777D02*
X020913Y008777D01*
X020913Y008671D02*
X020913Y008884D01*
X011971Y012330D02*
X011971Y012971D01*
X011758Y012971D02*
X012185Y012971D01*
X011540Y012757D02*
X011540Y012330D01*
X011540Y012650D02*
X011113Y012650D01*
X011113Y012757D02*
X011327Y012971D01*
X011540Y012757D01*
X011113Y012757D02*
X011113Y012330D01*
X010682Y012330D02*
X010682Y012971D01*
X010469Y012971D02*
X010896Y012971D01*
X010251Y012864D02*
X010145Y012971D01*
X009931Y012971D01*
X009824Y012864D01*
X009824Y012757D01*
X009931Y012650D01*
X010145Y012650D01*
X010251Y012544D01*
X010251Y012437D01*
X010145Y012330D01*
X009931Y012330D01*
X009824Y012437D01*
X013824Y016155D02*
X014251Y016582D01*
X014251Y016689D01*
X014145Y016796D01*
X013931Y016796D01*
X013824Y016689D01*
X014147Y017205D02*
X014147Y017846D01*
X014467Y017846D01*
X014574Y017739D01*
X014574Y017525D01*
X014467Y017419D01*
X014147Y017419D01*
X014791Y017419D02*
X015111Y017419D01*
X015218Y017525D01*
X015218Y017739D01*
X015111Y017846D01*
X014791Y017846D01*
X014791Y017205D01*
X015005Y017419D02*
X015218Y017205D01*
X015436Y017205D02*
X015756Y017205D01*
X015863Y017312D01*
X015863Y017739D01*
X015756Y017846D01*
X015436Y017846D01*
X015436Y017205D01*
X015327Y016796D02*
X015327Y016155D01*
X015540Y016155D02*
X015113Y016155D01*
X014896Y016262D02*
X014789Y016155D01*
X014576Y016155D01*
X014469Y016262D01*
X014896Y016689D01*
X014896Y016262D01*
X014469Y016262D02*
X014469Y016689D01*
X014576Y016796D01*
X014789Y016796D01*
X014896Y016689D01*
X015113Y016582D02*
X015327Y016796D01*
X015758Y016796D02*
X015758Y016475D01*
X015971Y016582D01*
X016078Y016582D01*
X016185Y016475D01*
X016185Y016262D01*
X016078Y016155D01*
X015865Y016155D01*
X015758Y016262D01*
X015758Y016796D02*
X016185Y016796D01*
X014251Y016155D02*
X013824Y016155D01*
X018163Y016419D02*
X018590Y016419D01*
X018803Y016632D01*
X018590Y016846D01*
X018163Y016846D01*
X018270Y017708D02*
X018376Y017708D01*
X018483Y017814D01*
X018483Y018028D01*
X018590Y018135D01*
X018697Y018135D01*
X018803Y018028D01*
X018803Y017814D01*
X018697Y017708D01*
X018270Y017708D02*
X018163Y017814D01*
X018163Y018028D01*
X018270Y018135D01*
X018270Y018997D02*
X018697Y018997D01*
X018803Y019104D01*
X018803Y019317D01*
X018697Y019424D01*
X018483Y019424D01*
X018483Y019210D01*
X018270Y018997D02*
X018163Y019104D01*
X018163Y019317D01*
X018270Y019424D01*
X021163Y017423D02*
X021270Y017529D01*
X021163Y017423D02*
X021163Y017209D01*
X021270Y017102D01*
X021697Y017102D01*
X021803Y017209D01*
X021803Y017423D01*
X021697Y017529D01*
X021483Y017529D01*
X021483Y017316D01*
X021590Y016240D02*
X021163Y016240D01*
X021590Y016240D02*
X021803Y016027D01*
X021590Y015813D01*
X021163Y015813D01*
X011935Y019137D02*
X011935Y019350D01*
X011721Y019350D01*
X011508Y019137D02*
X011615Y019030D01*
X011828Y019030D01*
X011935Y019137D01*
X011935Y019564D02*
X011828Y019671D01*
X011615Y019671D01*
X011508Y019564D01*
X011508Y019137D01*
X011290Y019137D02*
X011290Y019564D01*
X011184Y019671D01*
X010970Y019671D01*
X010863Y019564D01*
X010863Y019137D01*
X010970Y019030D01*
X011184Y019030D01*
X011290Y019137D01*
X010646Y019030D02*
X010432Y019244D01*
X010539Y019244D02*
X010219Y019244D01*
X010219Y019030D02*
X010219Y019671D01*
X010539Y019671D01*
X010646Y019564D01*
X010646Y019350D01*
X010539Y019244D01*
X010001Y019350D02*
X010001Y019564D01*
X009895Y019671D01*
X009574Y019671D01*
X009574Y019030D01*
X009574Y019244D02*
X009895Y019244D01*
X010001Y019350D01*
X009897Y008221D02*
X010217Y008221D01*
X010324Y008114D01*
X010324Y007900D01*
X010217Y007794D01*
X009897Y007794D01*
X010110Y007794D02*
X010324Y007580D01*
X010541Y007687D02*
X010648Y007580D01*
X010861Y007580D01*
X010968Y007687D01*
X010968Y007794D01*
X010861Y007900D01*
X010648Y007900D01*
X010541Y008007D01*
X010541Y008114D01*
X010648Y008221D01*
X010861Y008221D01*
X010968Y008114D01*
X011186Y008221D02*
X011613Y008221D01*
X011399Y008221D02*
X011399Y007580D01*
X009897Y007580D02*
X009897Y008221D01*
D12*
X009943Y008970D03*
X011723Y008970D03*
X013583Y009000D03*
X013583Y010550D03*
X014583Y010450D03*
X015583Y010550D03*
X016583Y010450D03*
X016583Y011450D03*
X015583Y011550D03*
X014583Y011450D03*
X011723Y011530D03*
X009943Y011530D03*
X013583Y014000D03*
X016583Y014000D03*
X019583Y014550D03*
X020583Y014450D03*
X021583Y014550D03*
X022583Y014450D03*
X022583Y016180D03*
X022583Y017320D03*
X019633Y017000D03*
X019533Y018000D03*
X019633Y019000D03*
X011723Y018280D03*
X009943Y018280D03*
X009943Y015720D03*
X011723Y015720D03*
X019583Y010500D03*
X019583Y009500D03*
X019583Y008500D03*
X017583Y007000D03*
X016583Y007000D03*
X015583Y007000D03*
X014583Y007000D03*
X013583Y007000D03*
X012583Y007000D03*
X016583Y009000D03*
X022583Y008500D03*
X022583Y009500D03*
X022583Y010500D03*
D13*
X011583Y014000D03*
X010583Y014000D03*
D14*
X013583Y011550D03*
D15*
X013833Y009750D02*
X013583Y009500D01*
X013583Y009000D01*
X012833Y008750D02*
X013333Y008250D01*
X016083Y008250D01*
X016583Y008750D01*
X016583Y009000D01*
X017083Y009750D02*
X013833Y009750D01*
X012833Y009250D02*
X012833Y008750D01*
X012833Y009250D02*
X012333Y009750D01*
X010333Y009750D01*
X009943Y009360D01*
X009943Y008970D01*
X017083Y009750D02*
X017583Y010250D01*
X017583Y015250D01*
X018083Y015750D01*
X019583Y015750D01*
D16*
X019583Y015750D03*
D17*
X022583Y019000D03*
X010083Y006500D03*
M02*
