G75*
%MOIN*%
%OFA0B0*%
%FSLAX24Y24*%
%IPPOS*%
%LPD*%
%AMOC8*
5,1,8,0,0,1.08239X$1,22.5*
%
%ADD10C,0.0080*%
%ADD11C,0.0050*%
%ADD12C,0.0040*%
%ADD13C,0.0010*%
%ADD14C,0.0060*%
D10*
X012083Y006750D02*
X012083Y007250D01*
X012333Y007500D01*
X012833Y007500D01*
X013083Y007250D01*
X013333Y007500D01*
X013833Y007500D01*
X014083Y007250D01*
X014333Y007500D01*
X014833Y007500D01*
X015083Y007250D01*
X015333Y007500D01*
X015833Y007500D01*
X016083Y007250D01*
X016333Y007500D01*
X016833Y007500D01*
X017083Y007250D01*
X017333Y007500D01*
X017833Y007500D01*
X018083Y007250D01*
X018083Y006750D01*
X017833Y006500D01*
X017333Y006500D01*
X017083Y006750D01*
X016833Y006500D01*
X016333Y006500D01*
X016083Y006750D01*
X015833Y006500D01*
X015333Y006500D01*
X015083Y006750D01*
X014833Y006500D01*
X014333Y006500D01*
X014083Y006750D01*
X013833Y006500D01*
X013333Y006500D01*
X013083Y006750D01*
X012833Y006500D01*
X012333Y006500D01*
X012083Y006750D01*
X014083Y008700D02*
X014083Y009000D01*
X013983Y009000D01*
X014083Y009000D02*
X014083Y009300D01*
X016083Y009300D01*
X016083Y009000D01*
X016183Y009000D01*
X016083Y009000D02*
X016083Y008700D01*
X014083Y008700D01*
X012033Y009400D02*
X012033Y011100D01*
X011233Y011450D02*
X010440Y011450D01*
X009633Y011100D02*
X009633Y009400D01*
X010429Y009050D02*
X011233Y009050D01*
X010133Y010250D02*
X010135Y010302D01*
X010141Y010354D01*
X010151Y010406D01*
X010164Y010456D01*
X010181Y010506D01*
X010202Y010554D01*
X010227Y010600D01*
X010255Y010644D01*
X010286Y010686D01*
X010320Y010726D01*
X010357Y010763D01*
X010397Y010797D01*
X010439Y010828D01*
X010483Y010856D01*
X010529Y010881D01*
X010577Y010902D01*
X010627Y010919D01*
X010677Y010932D01*
X010729Y010942D01*
X010781Y010948D01*
X010833Y010950D01*
X010885Y010948D01*
X010937Y010942D01*
X010989Y010932D01*
X011039Y010919D01*
X011089Y010902D01*
X011137Y010881D01*
X011183Y010856D01*
X011227Y010828D01*
X011269Y010797D01*
X011309Y010763D01*
X011346Y010726D01*
X011380Y010686D01*
X011411Y010644D01*
X011439Y010600D01*
X011464Y010554D01*
X011485Y010506D01*
X011502Y010456D01*
X011515Y010406D01*
X011525Y010354D01*
X011531Y010302D01*
X011533Y010250D01*
X011531Y010198D01*
X011525Y010146D01*
X011515Y010094D01*
X011502Y010044D01*
X011485Y009994D01*
X011464Y009946D01*
X011439Y009900D01*
X011411Y009856D01*
X011380Y009814D01*
X011346Y009774D01*
X011309Y009737D01*
X011269Y009703D01*
X011227Y009672D01*
X011183Y009644D01*
X011137Y009619D01*
X011089Y009598D01*
X011039Y009581D01*
X010989Y009568D01*
X010937Y009558D01*
X010885Y009552D01*
X010833Y009550D01*
X010781Y009552D01*
X010729Y009558D01*
X010677Y009568D01*
X010627Y009581D01*
X010577Y009598D01*
X010529Y009619D01*
X010483Y009644D01*
X010439Y009672D01*
X010397Y009703D01*
X010357Y009737D01*
X010320Y009774D01*
X010286Y009814D01*
X010255Y009856D01*
X010227Y009900D01*
X010202Y009946D01*
X010181Y009994D01*
X010164Y010044D01*
X010151Y010094D01*
X010141Y010146D01*
X010135Y010198D01*
X010133Y010250D01*
X014083Y013700D02*
X014083Y014000D01*
X013983Y014000D01*
X014083Y014000D02*
X014083Y014300D01*
X016083Y014300D01*
X016083Y014000D01*
X016183Y014000D01*
X016083Y014000D02*
X016083Y013700D01*
X014083Y013700D01*
X011226Y015800D02*
X010433Y015800D01*
X009633Y016150D02*
X009633Y017850D01*
X010433Y018200D02*
X011238Y018200D01*
X012033Y017850D02*
X012033Y016150D01*
X010133Y017000D02*
X010135Y017052D01*
X010141Y017104D01*
X010151Y017156D01*
X010164Y017206D01*
X010181Y017256D01*
X010202Y017304D01*
X010227Y017350D01*
X010255Y017394D01*
X010286Y017436D01*
X010320Y017476D01*
X010357Y017513D01*
X010397Y017547D01*
X010439Y017578D01*
X010483Y017606D01*
X010529Y017631D01*
X010577Y017652D01*
X010627Y017669D01*
X010677Y017682D01*
X010729Y017692D01*
X010781Y017698D01*
X010833Y017700D01*
X010885Y017698D01*
X010937Y017692D01*
X010989Y017682D01*
X011039Y017669D01*
X011089Y017652D01*
X011137Y017631D01*
X011183Y017606D01*
X011227Y017578D01*
X011269Y017547D01*
X011309Y017513D01*
X011346Y017476D01*
X011380Y017436D01*
X011411Y017394D01*
X011439Y017350D01*
X011464Y017304D01*
X011485Y017256D01*
X011502Y017206D01*
X011515Y017156D01*
X011525Y017104D01*
X011531Y017052D01*
X011533Y017000D01*
X011531Y016948D01*
X011525Y016896D01*
X011515Y016844D01*
X011502Y016794D01*
X011485Y016744D01*
X011464Y016696D01*
X011439Y016650D01*
X011411Y016606D01*
X011380Y016564D01*
X011346Y016524D01*
X011309Y016487D01*
X011269Y016453D01*
X011227Y016422D01*
X011183Y016394D01*
X011137Y016369D01*
X011089Y016348D01*
X011039Y016331D01*
X010989Y016318D01*
X010937Y016308D01*
X010885Y016302D01*
X010833Y016300D01*
X010781Y016302D01*
X010729Y016308D01*
X010677Y016318D01*
X010627Y016331D01*
X010577Y016348D01*
X010529Y016369D01*
X010483Y016394D01*
X010439Y016422D01*
X010397Y016453D01*
X010357Y016487D01*
X010320Y016524D01*
X010286Y016564D01*
X010255Y016606D01*
X010227Y016650D01*
X010202Y016696D01*
X010181Y016744D01*
X010164Y016794D01*
X010151Y016844D01*
X010141Y016896D01*
X010135Y016948D01*
X010133Y017000D01*
X018727Y011789D02*
X018727Y007211D01*
X020440Y007211D01*
X020440Y011789D01*
X018727Y011789D01*
X021727Y011789D02*
X021727Y007211D01*
X023440Y007211D01*
X023440Y011789D01*
X021727Y011789D01*
X022333Y015750D02*
X022833Y015750D01*
X023083Y016000D01*
X023083Y016500D01*
X022833Y016750D01*
X023083Y017000D01*
X023083Y017500D01*
X022833Y017750D01*
X022333Y017750D01*
X022083Y017500D01*
X022083Y017000D01*
X022333Y016750D01*
X022083Y016500D01*
X022083Y016000D01*
X022333Y015750D01*
X020083Y016750D02*
X019833Y016500D01*
X019333Y016500D01*
X019083Y016750D01*
X019083Y017250D01*
X019333Y017500D01*
X019083Y017750D01*
X019083Y018250D01*
X019333Y018500D01*
X019083Y018750D01*
X019083Y019250D01*
X019333Y019500D01*
X019833Y019500D01*
X020083Y019250D01*
X020083Y018750D01*
X019833Y018500D01*
X020083Y018250D01*
X020083Y017750D01*
X019833Y017500D01*
X020083Y017250D01*
X020083Y016750D01*
D11*
X023328Y016724D02*
X023328Y016574D01*
X023328Y016649D02*
X023703Y016649D01*
X023778Y016574D01*
X023778Y016499D01*
X023703Y016424D01*
X023628Y016884D02*
X023628Y017109D01*
X023553Y017184D01*
X023403Y017184D01*
X023328Y017109D01*
X023328Y016884D01*
X023778Y016884D01*
X023703Y017345D02*
X023778Y017420D01*
X023778Y017570D01*
X023703Y017645D01*
X023628Y017645D01*
X023553Y017570D01*
X023553Y017495D01*
X023553Y017570D02*
X023478Y017645D01*
X023403Y017645D01*
X023328Y017570D01*
X023328Y017420D01*
X023403Y017345D01*
X017583Y019750D02*
X012583Y019750D01*
X012583Y010000D01*
X017583Y010000D01*
X017583Y019750D01*
X012808Y017865D02*
X012808Y017565D01*
X012508Y017865D01*
X012433Y017865D01*
X012358Y017790D01*
X012358Y017640D01*
X012433Y017565D01*
X012433Y017404D02*
X012358Y017329D01*
X012358Y017179D01*
X012433Y017104D01*
X012508Y017104D01*
X012583Y017179D01*
X012583Y017329D01*
X012658Y017404D01*
X012733Y017404D01*
X012808Y017329D01*
X012808Y017179D01*
X012733Y017104D01*
X012308Y011246D02*
X012308Y010946D01*
X012308Y011096D02*
X011858Y011096D01*
X012008Y010946D01*
X011933Y010786D02*
X011858Y010711D01*
X011858Y010560D01*
X011933Y010485D01*
X012008Y010485D01*
X012083Y010560D01*
X012083Y010711D01*
X012158Y010786D01*
X012233Y010786D01*
X012308Y010711D01*
X012308Y010560D01*
X012233Y010485D01*
X012233Y010325D02*
X011858Y010325D01*
X011858Y010025D02*
X012233Y010025D01*
X012308Y010100D01*
X012308Y010250D01*
X012233Y010325D01*
X012383Y010636D02*
X011783Y010636D01*
X013228Y008195D02*
X013379Y008195D01*
X013304Y008195D02*
X013304Y007820D01*
X013228Y007745D01*
X013153Y007745D01*
X013078Y007820D01*
X013539Y007745D02*
X013539Y008195D01*
X013764Y008195D01*
X013839Y008120D01*
X013839Y007970D01*
X013764Y007895D01*
X013539Y007895D01*
X013999Y007745D02*
X014299Y008045D01*
X014299Y008120D01*
X014224Y008195D01*
X014074Y008195D01*
X013999Y008120D01*
X013999Y007745D02*
X014299Y007745D01*
D12*
X014254Y006230D02*
X014024Y006230D01*
X014024Y005770D01*
X014254Y005770D01*
X014331Y005847D01*
X014331Y006154D01*
X014254Y006230D01*
X014485Y006230D02*
X014638Y006230D01*
X014561Y006230D02*
X014561Y005770D01*
X014485Y005770D02*
X014638Y005770D01*
X014791Y005693D02*
X015098Y005693D01*
X015252Y005770D02*
X015482Y005770D01*
X015559Y005847D01*
X015559Y005923D01*
X015482Y006000D01*
X015252Y006000D01*
X015252Y005770D02*
X015252Y006230D01*
X015482Y006230D01*
X015559Y006154D01*
X015559Y006077D01*
X015482Y006000D01*
X015712Y006000D02*
X016019Y006000D01*
X016019Y006077D02*
X016019Y005770D01*
X016173Y005847D02*
X016249Y005770D01*
X016403Y005770D01*
X016480Y005847D01*
X016480Y005923D01*
X016403Y006000D01*
X016249Y006000D01*
X016173Y006077D01*
X016173Y006154D01*
X016249Y006230D01*
X016403Y006230D01*
X016480Y006154D01*
X016633Y006230D02*
X016786Y006230D01*
X016710Y006230D02*
X016710Y005770D01*
X016786Y005770D02*
X016633Y005770D01*
X016940Y005847D02*
X017017Y005770D01*
X017170Y005770D01*
X017247Y005847D01*
X017400Y005923D02*
X017631Y005923D01*
X017707Y006000D01*
X017707Y006154D01*
X017631Y006230D01*
X017400Y006230D01*
X017400Y005770D01*
X017247Y006154D02*
X017170Y006230D01*
X017017Y006230D01*
X016940Y006154D01*
X016940Y005847D01*
X016019Y006077D02*
X015866Y006230D01*
X015712Y006077D01*
X015712Y005770D01*
X013871Y006230D02*
X013564Y006230D01*
X013717Y006230D02*
X013717Y005770D01*
X013257Y006000D02*
X013103Y006000D01*
X013103Y005770D02*
X013103Y006230D01*
X013410Y006230D01*
X017861Y006230D02*
X018168Y006230D01*
X018321Y006230D02*
X018321Y005770D01*
X018321Y006000D02*
X018628Y006000D01*
X018628Y006230D02*
X018628Y005770D01*
X018014Y005770D02*
X018014Y006230D01*
X018083Y010020D02*
X018083Y010173D01*
X017853Y010327D02*
X017853Y010020D01*
X018313Y010020D01*
X018313Y010327D01*
X018237Y010480D02*
X018313Y010557D01*
X018313Y010711D01*
X018237Y010787D01*
X018160Y010787D01*
X018083Y010711D01*
X018083Y010557D01*
X018006Y010480D01*
X017930Y010480D01*
X017853Y010557D01*
X017853Y010711D01*
X017930Y010787D01*
X017853Y010941D02*
X017853Y011171D01*
X017930Y011248D01*
X018083Y011248D01*
X018160Y011171D01*
X018160Y010941D01*
X018313Y010941D02*
X017853Y010941D01*
X017930Y011401D02*
X018006Y011401D01*
X018083Y011478D01*
X018083Y011631D01*
X018160Y011708D01*
X018237Y011708D01*
X018313Y011631D01*
X018313Y011478D01*
X018237Y011401D01*
X018160Y011401D01*
X018083Y011478D01*
X018083Y011631D02*
X018006Y011708D01*
X017930Y011708D01*
X017853Y011631D01*
X017853Y011478D01*
X017930Y011401D01*
X017930Y011862D02*
X017853Y011938D01*
X017853Y012092D01*
X017930Y012168D01*
X018006Y012168D01*
X018313Y011862D01*
X018313Y012168D01*
X018237Y012322D02*
X018313Y012399D01*
X018313Y012552D01*
X018237Y012629D01*
X018160Y012629D01*
X018083Y012552D01*
X018083Y012322D01*
X018237Y012322D01*
X018083Y012322D02*
X017930Y012475D01*
X017853Y012629D01*
X018083Y012782D02*
X017930Y012936D01*
X017853Y013089D01*
X018083Y013013D02*
X018083Y012782D01*
X018237Y012782D01*
X018313Y012859D01*
X018313Y013013D01*
X018237Y013089D01*
X018160Y013089D01*
X018083Y013013D01*
X019103Y013099D02*
X019487Y013099D01*
X019563Y013176D01*
X019563Y013329D01*
X019487Y013406D01*
X019103Y013406D01*
X019103Y013560D02*
X019103Y013867D01*
X019103Y013713D02*
X019563Y013713D01*
X020103Y013790D02*
X020103Y013560D01*
X020563Y013560D01*
X020563Y013790D01*
X020487Y013867D01*
X020180Y013867D01*
X020103Y013790D01*
X020103Y013406D02*
X020563Y013406D01*
X020103Y013099D01*
X020563Y013099D01*
X020487Y012946D02*
X020333Y012946D01*
X020333Y012792D01*
X020180Y012639D02*
X020487Y012639D01*
X020563Y012716D01*
X020563Y012869D01*
X020487Y012946D01*
X020180Y012946D02*
X020103Y012869D01*
X020103Y012716D01*
X020180Y012639D01*
X019563Y012716D02*
X019563Y012869D01*
X019487Y012946D01*
X019180Y012946D01*
X019103Y012869D01*
X019103Y012716D01*
X019180Y012639D01*
X019487Y012639D01*
X019563Y012716D01*
X019410Y012485D02*
X019103Y012485D01*
X019410Y012485D02*
X019563Y012332D01*
X019410Y012178D01*
X019103Y012178D01*
X021103Y012792D02*
X021410Y012792D01*
X021563Y012946D01*
X021410Y013099D01*
X021103Y013099D01*
X021103Y013253D02*
X021103Y013406D01*
X021103Y013329D02*
X021563Y013329D01*
X021563Y013253D02*
X021563Y013406D01*
X021563Y013560D02*
X021103Y013560D01*
X021563Y013867D01*
X021103Y013867D01*
X022023Y014000D02*
X022023Y012158D01*
X022103Y012255D02*
X022180Y012178D01*
X022256Y012178D01*
X022333Y012255D01*
X022333Y012409D01*
X022410Y012485D01*
X022487Y012485D01*
X022563Y012409D01*
X022563Y012255D01*
X022487Y012178D01*
X022103Y012255D02*
X022103Y012409D01*
X022180Y012485D01*
X022103Y012639D02*
X022563Y012639D01*
X022333Y012639D02*
X022333Y012946D01*
X022103Y012946D02*
X022563Y012946D01*
X022563Y013099D02*
X022103Y013099D01*
X022103Y013329D01*
X022180Y013406D01*
X022487Y013406D01*
X022563Y013329D01*
X022563Y013099D01*
X022563Y013560D02*
X022103Y013560D01*
X022563Y013867D01*
X022103Y013867D01*
X018813Y014936D02*
X018353Y014936D01*
X018353Y015243D01*
X018353Y015396D02*
X018353Y015473D01*
X018813Y015473D01*
X018813Y015396D02*
X018813Y015550D01*
X018737Y015703D02*
X018583Y015703D01*
X018506Y015780D01*
X018506Y015933D01*
X018583Y016010D01*
X018737Y016010D01*
X018813Y015933D01*
X018813Y015780D01*
X018737Y015703D01*
X018737Y016164D02*
X018506Y016164D01*
X018737Y016164D02*
X018813Y016240D01*
X018737Y016317D01*
X018813Y016394D01*
X018737Y016471D01*
X018506Y016471D01*
X018506Y017084D02*
X018583Y017161D01*
X018583Y017315D01*
X018660Y017391D01*
X018737Y017391D01*
X018813Y017315D01*
X018813Y017161D01*
X018737Y017084D01*
X018506Y017084D02*
X018430Y017084D01*
X018353Y017161D01*
X018353Y017315D01*
X018430Y017391D01*
X018583Y017545D02*
X018506Y017621D01*
X018506Y017775D01*
X018583Y017852D01*
X018660Y017852D01*
X018660Y017545D01*
X018737Y017545D02*
X018583Y017545D01*
X018737Y017545D02*
X018813Y017621D01*
X018813Y017775D01*
X018813Y018005D02*
X018506Y018005D01*
X018506Y018235D01*
X018583Y018312D01*
X018813Y018312D01*
X018813Y018466D02*
X018813Y018696D01*
X018737Y018772D01*
X018660Y018696D01*
X018660Y018542D01*
X018583Y018466D01*
X018506Y018542D01*
X018506Y018772D01*
X018583Y018926D02*
X018737Y018926D01*
X018813Y019003D01*
X018813Y019156D01*
X018737Y019233D01*
X018583Y019233D01*
X018506Y019156D01*
X018506Y019003D01*
X018583Y018926D01*
X018506Y019386D02*
X018813Y019386D01*
X018660Y019386D02*
X018506Y019540D01*
X018506Y019617D01*
X021353Y017540D02*
X021430Y017617D01*
X021583Y017617D01*
X021660Y017540D01*
X021660Y017310D01*
X021660Y017463D02*
X021813Y017617D01*
X021813Y017310D02*
X021353Y017310D01*
X021353Y017540D01*
X021353Y017156D02*
X021813Y017156D01*
X021660Y017003D01*
X021813Y016849D01*
X021353Y016849D01*
X021430Y016696D02*
X021583Y016696D01*
X021660Y016619D01*
X021660Y016389D01*
X021813Y016389D02*
X021353Y016389D01*
X021353Y016619D01*
X021430Y016696D01*
X018583Y015089D02*
X018583Y014936D01*
X015678Y012827D02*
X015524Y012827D01*
X015601Y012904D02*
X015601Y012597D01*
X015678Y012520D01*
X015371Y012520D02*
X015371Y012750D01*
X015294Y012827D01*
X015064Y012827D01*
X015064Y012520D01*
X014910Y012520D02*
X014910Y012827D01*
X014757Y012980D01*
X014603Y012827D01*
X014603Y012520D01*
X014603Y012750D02*
X014910Y012750D01*
D13*
X014336Y014505D02*
X014236Y014505D01*
X014336Y014605D01*
X014336Y014630D01*
X014311Y014655D01*
X014261Y014655D01*
X014236Y014630D01*
X014188Y014630D02*
X014163Y014655D01*
X014088Y014655D01*
X014088Y014505D01*
X014088Y014555D02*
X014163Y014555D01*
X014188Y014580D01*
X014188Y014630D01*
X014138Y014555D02*
X014188Y014505D01*
X015794Y008495D02*
X015869Y008495D01*
X015894Y008470D01*
X015894Y008420D01*
X015869Y008395D01*
X015794Y008395D01*
X015844Y008395D02*
X015894Y008345D01*
X015941Y008345D02*
X016041Y008345D01*
X015991Y008345D02*
X015991Y008495D01*
X015941Y008445D01*
X015794Y008495D02*
X015794Y008345D01*
D14*
X015777Y008780D02*
X015606Y008893D01*
X015777Y009007D01*
X015606Y009120D02*
X015606Y008780D01*
X015465Y008837D02*
X015465Y009064D01*
X015238Y008837D01*
X015295Y008780D01*
X015408Y008780D01*
X015465Y008837D01*
X015465Y009064D02*
X015408Y009120D01*
X015295Y009120D01*
X015238Y009064D01*
X015238Y008837D01*
X015097Y008780D02*
X014870Y008780D01*
X014983Y008780D02*
X014983Y009120D01*
X014870Y009007D01*
X014833Y010000D02*
X014333Y010000D01*
X014083Y010250D01*
X014083Y010750D01*
X014333Y011000D01*
X014083Y011250D01*
X013833Y011000D01*
X014083Y010750D01*
X013833Y011000D02*
X013333Y011000D01*
X013083Y011250D01*
X013083Y011750D01*
X013333Y012000D01*
X013833Y012000D01*
X014083Y011750D01*
X014333Y012000D01*
X014833Y012000D01*
X015083Y011750D01*
X015333Y012000D01*
X015833Y012000D01*
X016083Y011750D01*
X016333Y012000D01*
X016833Y012000D01*
X017083Y011750D01*
X017083Y011250D01*
X016833Y011000D01*
X017083Y010750D01*
X017083Y010250D01*
X016833Y010000D01*
X016333Y010000D01*
X016083Y010250D01*
X016083Y010750D01*
X016333Y011000D01*
X016083Y011250D01*
X015833Y011000D01*
X016083Y010750D01*
X015833Y011000D02*
X015333Y011000D01*
X015083Y011250D01*
X014833Y011000D01*
X014333Y011000D01*
X014083Y011250D02*
X014083Y011750D01*
X013833Y012250D02*
X013333Y012250D01*
X013333Y011000D02*
X013083Y010750D01*
X013083Y010250D01*
X013333Y010000D01*
X013833Y010000D01*
X014083Y010250D01*
X014833Y010000D02*
X015083Y010250D01*
X015083Y010750D01*
X015333Y011000D01*
X015083Y010750D02*
X014833Y011000D01*
X015083Y010250D02*
X015333Y010000D01*
X015833Y010000D01*
X016083Y010250D01*
X016333Y011000D02*
X016833Y011000D01*
X014852Y013880D02*
X014682Y013993D01*
X014852Y014107D01*
X014682Y014220D02*
X014682Y013880D01*
X014540Y013880D02*
X014313Y013880D01*
X014427Y013880D02*
X014427Y014220D01*
X014313Y014107D01*
X019083Y014250D02*
X019083Y014750D01*
X019333Y015000D01*
X019833Y015000D01*
X020083Y014750D01*
X020083Y014250D01*
X020333Y014000D01*
X020833Y014000D01*
X021083Y014250D01*
X021083Y014750D01*
X021333Y015000D01*
X021833Y015000D01*
X022083Y014750D01*
X022083Y014250D01*
X022333Y014000D01*
X022833Y014000D01*
X023083Y014250D01*
X023083Y014750D01*
X022833Y015000D01*
X022333Y015000D01*
X022083Y014750D01*
X022083Y014250D02*
X021833Y014000D01*
X021333Y014000D01*
X021083Y014250D01*
X021083Y014750D02*
X020833Y015000D01*
X020333Y015000D01*
X020083Y014750D01*
X020083Y014250D02*
X019833Y014000D01*
X019333Y014000D01*
X019083Y014250D01*
M02*
